<?xml version="1.0" encoding="UTF-8"?>
<svg id="Capa_1" xmlns="http://www.w3.org/2000/svg" version="1.1" xmlns:xlink="http://www.w3.org/1999/xlink" viewBox="0 0 1080 1080">
  <!-- Generator: Adobe Illustrator 29.2.1, SVG Export Plug-In . SVG Version: 2.1.0 Build 116)  -->
  <defs>
    <style>
      .st0 {
        fill: none;
        stroke: #000;
        stroke-linecap: round;
        stroke-linejoin: round;
        stroke-width: 40px;
      }
    </style>
  </defs>
  <path class="st0" d="M493.9,732v99.6c14.3,0,33.5-.2,59.9-.2,74.4-1.5,144.6-50.3,145.6-132.3v-105.9h307v-101.5h-307c.8-50.4,13.4-86.7,37.8-109.2s63.3-33.8,116.9-33.8h198.5v-102.2h-188.2c-55.7,0-102.2,5.4-139.4,16.3-37.4,10.9-67.2,27.7-89.6,50.3-21.8,22.1-37.1,50.8-46.2,85.8-9.1,35.1-13.6,89.9-13.6,164.8v81.2c1.3,56-18.5,88.1-81.8,87.3h0v-.2ZM321.7,346.6c-51.1,0-88,16.2-110.5,48.8-22.5,32.5-33.8,85.9-33.8,160.2s10.7,109.9,32.3,136.3c21.6,26.4,58.9,39.5,111.9,39.5h121.2v100.4c-33.1.7-16.4,1.8-127.2,1.8s-82.4-3.9-108.7-11.7c-26.3-7.9-51.1-21.2-74.3-39.9-30.1-24-52.6-55.2-67.6-93.7-15.2-38.4-22.6-84.5-22.6-138,0-103.9,22.5-180.5,67.5-230,45-49.3,114.8-74,209.3-74h205.4v100.2h-202.9,0Z"/>
</svg>